<?xml version="1.0" standalone="no"?>
<!DOCTYPE svg PUBLIC "-//W3C//DTD SVG 20010904//EN"
 "http://www.w3.org/TR/2001/REC-SVG-20010904/DTD/svg10.dtd">
<svg version="1.0" xmlns="http://www.w3.org/2000/svg"
 width="763.000000pt" height="364.000000pt" viewBox="0 0 763.000000 364.000000"
 preserveAspectRatio="xMidYMid meet">

<g transform="translate(0.000000,364.000000) scale(0.100000,-0.100000)"
fill="#000000" stroke="none">
<path d="M0 1820 l0 -1820 3815 0 3815 0 0 1820 0 1820 -3815 0 -3815 0 0
-1820z m1175 840 c248 -63 456 -233 570 -463 68 -139 88 -225 88 -387 0 -162
-20 -248 -88 -387 -88 -178 -224 -314 -400 -399 -142 -69 -224 -87 -390 -87
-123 0 -151 3 -229 27 -319 96 -537 320 -622 642 -25 96 -25 312 0 408 56 211
185 402 348 514 104 71 258 133 381 153 81 13 253 2 342 -21z m2625 -600 l0
-141 36 35 c41 39 114 61 173 50 126 -23 183 -110 184 -284 1 -206 -66 -299
-216 -300 -70 0 -118 19 -157 61 l-29 33 -7 -42 c-6 -41 -8 -42 -45 -42 l-39
0 0 385 0 385 50 0 50 0 0 -140z m1520 -245 l0 -385 -50 0 -50 0 0 385 0 385
50 0 50 0 0 -385z m242 148 l3 -236 115 131 115 132 54 0 c63 0 67 10 -52
-122 -44 -49 -77 -94 -74 -100 2 -7 48 -86 100 -175 l96 -163 -54 0 -54 0 -76
136 c-43 74 -80 134 -84 132 -4 -2 -26 -24 -49 -49 l-42 -46 0 -87 0 -86 -50
0 -50 0 0 385 0 385 50 0 50 0 2 -237z m1378 187 l0 -50 -50 0 -50 0 0 50 0
50 50 0 50 0 0 -50z m-2510 -80 l0 -80 50 0 50 0 0 -35 0 -35 -50 0 -50 0 0
-205 0 -205 26 -10 c14 -6 36 -10 50 -10 20 0 24 -5 24 -29 0 -34 -13 -41 -81
-41 -109 0 -119 24 -119 295 l0 205 -35 0 c-33 0 -35 2 -35 35 0 33 2 35 35
35 41 0 41 1 50 93 l7 67 39 0 39 0 0 -80z m-975 -85 c35 -14 81 -59 101 -97
12 -24 33 -135 34 -180 0 -17 -16 -18 -205 -18 -232 0 -217 7 -194 -86 36
-143 268 -153 296 -12 5 26 9 28 51 28 l45 0 -7 -42 c-15 -94 -95 -151 -220
-157 -133 -6 -202 31 -247 131 -19 45 -23 70 -23 158 0 113 18 176 67 228 61
66 205 88 302 47z m1522 -7 c25 -11 52 -34 65 -56 21 -35 23 -50 27 -229 l3
-192 34 -7 c29 -5 34 -10 34 -34 0 -32 -15 -40 -69 -40 -38 0 -81 23 -81 43 0
7 -4 18 -9 26 -7 11 -13 10 -32 -9 -41 -39 -99 -60 -167 -60 -116 0 -173 43
-180 139 -9 126 73 185 276 198 l92 6 0 53 c0 41 -5 59 -24 81 -23 26 -29 28
-99 28 -66 0 -79 -3 -101 -24 -14 -14 -26 -35 -26 -48 0 -21 -4 -23 -50 -23
-55 0 -54 -1 -39 53 30 108 212 159 346 95z m2463 6 c81 -34 129 -118 137
-243 10 -144 -36 -251 -128 -299 -39 -20 -56 -23 -146 -20 -94 3 -104 5 -145
33 -54 39 -84 91 -99 176 -33 186 42 340 181 369 56 11 153 3 200 -16z m-1120
-6 c51 -26 90 -78 90 -119 0 -27 -2 -29 -44 -29 -40 0 -44 2 -49 30 -12 59
-111 88 -196 59 -55 -19 -68 -74 -25 -108 14 -11 78 -37 142 -57 152 -47 182
-74 182 -162 0 -45 -5 -67 -23 -92 -38 -58 -79 -74 -194 -78 -89 -4 -108 -2
-147 18 -55 26 -86 67 -93 120 l-6 40 45 0 c41 0 45 -2 53 -32 13 -43 54 -70
113 -76 121 -11 203 68 139 132 -14 14 -61 35 -113 51 -107 33 -177 67 -198
97 -20 29 -21 110 -1 148 27 53 92 78 200 79 65 1 90 -3 125 -21z m-3892 -175
c28 -104 55 -204 60 -223 l10 -35 7 30 c4 17 28 116 54 220 l47 190 51 3 52 3
10 -38 c6 -21 30 -118 54 -216 41 -164 57 -215 57 -174 0 9 25 107 55 217 30
110 55 203 55 205 0 3 20 5 45 5 42 0 45 -2 40 -22 -4 -13 -41 -138 -84 -278
l-77 -255 -50 -3 -50 -3 -48 203 c-27 112 -51 212 -53 223 -3 11 -30 -78 -60
-203 l-55 -223 -50 3 -50 3 -78 255 c-42 140 -80 265 -84 278 -7 21 -5 22 42
22 l49 0 51 -187z m4512 -93 l0 -280 -50 0 -50 0 0 280 0 280 50 0 50 0 0
-280z m-270 -225 l0 -55 -50 0 -50 0 0 55 0 55 50 0 50 0 0 -55z"/>
<path d="M1326 2158 c-3 -29 -6 -68 -6 -85 0 -32 -1 -33 -45 -33 l-45 0 0 -45
0 -45 39 0 40 0 3 -236 3 -236 33 -29 c31 -28 52 -33 117 -29 56 3 65 9 65 46
0 34 0 34 -44 34 -73 0 -76 9 -76 247 l0 203 60 0 60 0 0 45 0 45 -60 0 -60 0
0 85 0 85 -39 0 -38 0 -7 -52z"/>
<path d="M392 2028 c3 -7 45 -145 94 -305 l88 -293 53 0 c52 0 52 0 62 38 32
120 101 408 102 426 1 29 9 3 70 -251 l51 -213 53 0 54 0 21 73 c12 39 51 169
86 287 36 118 67 223 70 233 5 14 -2 17 -43 17 l-48 0 -65 -240 c-39 -142 -68
-232 -71 -222 -4 9 -31 117 -60 240 l-53 222 -56 0 -56 0 -59 -241 -58 -240
-66 240 -66 241 -53 0 c-39 0 -53 -4 -50 -12z"/>
<path d="M3858 1891 c-42 -36 -58 -88 -58 -183 0 -82 15 -132 50 -171 27 -30
32 -32 100 -32 68 0 73 2 100 32 40 44 53 102 47 199 -8 132 -42 176 -141 182
-59 4 -65 2 -98 -27z"/>
<path d="M3265 1912 c-43 -28 -62 -52 -74 -97 -6 -22 -11 -43 -11 -47 0 -5 70
-8 156 -8 l157 0 -6 35 c-14 84 -58 126 -139 132 -40 3 -60 -1 -83 -15z"/>
<path d="M4825 1683 c-50 -10 -106 -36 -115 -53 -13 -24 -13 -76 0 -100 23
-43 134 -46 195 -6 39 25 65 75 65 124 l0 42 -62 -1 c-35 -1 -72 -3 -83 -6z"/>
<path d="M7258 1918 c-72 -19 -108 -89 -108 -208 0 -163 70 -233 209 -208 85
15 120 76 121 208 0 95 -23 158 -70 192 -31 22 -103 30 -152 16z"/>
</g>
</svg>
